<mxfile host="app.diagrams.net" modified="2023-06-27T12:24:26.269Z" agent="Mozilla/5.0 (Windows NT 10.0; Win64; x64) AppleWebKit/537.36 (KHTML, like Gecko) Chrome/114.0.0.0 Safari/537.36" etag="x7R2Vc8739N-6ZRVXpFZ" version="21.5.1" type="github">
  <diagram name="第 1 页" id="XRGL_tI0GyppLxU1XjgR">
    <mxGraphModel dx="5293" dy="4053" grid="1" gridSize="10" guides="1" tooltips="1" connect="1" arrows="1" fold="1" page="1" pageScale="1" pageWidth="1920" pageHeight="1200" math="0" shadow="0">
      <root>
        <mxCell id="0" />
        <mxCell id="1" parent="0" />
        <mxCell id="Wlm1Ccf8dNlTr5grpKar-1" value="" style="whiteSpace=wrap;html=1;aspect=fixed;sketch=1;hachureGap=4;jiggle=2;curveFitting=1;fontFamily=Architects Daughter;fontSource=https%3A%2F%2Ffonts.googleapis.com%2Fcss%3Ffamily%3DArchitects%2BDaughter;fontSize=20;strokeWidth=1;rounded=0;glass=0;fillColor=#1ba1e2;fontColor=#ffffff;strokeColor=#006EAF;" vertex="1" parent="1">
          <mxGeometry x="245" y="-195" width="2470" height="2470" as="geometry" />
        </mxCell>
        <mxCell id="Wlm1Ccf8dNlTr5grpKar-2" value="" style="rounded=0;whiteSpace=wrap;html=1;sketch=1;hachureGap=4;jiggle=2;curveFitting=1;fontFamily=Architects Daughter;fontSource=https%3A%2F%2Ffonts.googleapis.com%2Fcss%3Ffamily%3DArchitects%2BDaughter;fontSize=20;fillColor=#0050ef;fontColor=#ffffff;strokeColor=#001DBC;" vertex="1" parent="1">
          <mxGeometry x="250" y="-195" width="2470" height="100" as="geometry" />
        </mxCell>
        <mxCell id="Wlm1Ccf8dNlTr5grpKar-3" value="人事管理系统" style="text;html=1;strokeColor=none;fillColor=none;align=center;verticalAlign=middle;whiteSpace=wrap;rounded=0;fontSize=30;fontFamily=Architects Daughter;" vertex="1" parent="1">
          <mxGeometry x="210" y="-165" width="330" height="30" as="geometry" />
        </mxCell>
        <mxCell id="Wlm1Ccf8dNlTr5grpKar-4" value="Personnel management system" style="text;html=1;strokeColor=none;fillColor=none;align=center;verticalAlign=middle;whiteSpace=wrap;rounded=0;fontSize=30;fontFamily=Architects Daughter;" vertex="1" parent="1">
          <mxGeometry x="620" y="-165" width="460" height="30" as="geometry" />
        </mxCell>
        <mxCell id="Wlm1Ccf8dNlTr5grpKar-8" value="退出" style="text;html=1;strokeColor=none;fillColor=none;align=center;verticalAlign=middle;whiteSpace=wrap;rounded=0;fontSize=30;fontFamily=Architects Daughter;" vertex="1" parent="1">
          <mxGeometry x="2570" y="-165" width="80" height="30" as="geometry" />
        </mxCell>
        <mxCell id="Wlm1Ccf8dNlTr5grpKar-9" value="超级管理员" style="text;html=1;align=center;verticalAlign=middle;resizable=0;points=[];autosize=1;strokeColor=none;fillColor=none;fontSize=30;fontFamily=Architects Daughter;" vertex="1" parent="1">
          <mxGeometry x="2355" y="-175" width="170" height="50" as="geometry" />
        </mxCell>
        <mxCell id="Wlm1Ccf8dNlTr5grpKar-12" value="" style="rounded=0;whiteSpace=wrap;html=1;sketch=1;hachureGap=4;jiggle=2;curveFitting=1;fontFamily=Architects Daughter;fontSource=https%3A%2F%2Ffonts.googleapis.com%2Fcss%3Ffamily%3DArchitects%2BDaughter;fontSize=30;" vertex="1" parent="1">
          <mxGeometry x="250" y="-105" width="570" height="1975" as="geometry" />
        </mxCell>
        <mxCell id="Wlm1Ccf8dNlTr5grpKar-19" value="" style="line;strokeWidth=2;html=1;sketch=1;hachureGap=4;jiggle=2;curveFitting=1;fontFamily=Architects Daughter;fontSource=https%3A%2F%2Ffonts.googleapis.com%2Fcss%3Ffamily%3DArchitects%2BDaughter;fontSize=20;" vertex="1" parent="1">
          <mxGeometry x="240" y="500" width="560" height="50" as="geometry" />
        </mxCell>
        <mxCell id="Wlm1Ccf8dNlTr5grpKar-20" value="" style="line;strokeWidth=2;html=1;sketch=1;hachureGap=4;jiggle=2;curveFitting=1;fontFamily=Architects Daughter;fontSource=https://fonts.googleapis.com/css?family=Architects+Daughter;fontSize=20;" vertex="1" parent="1">
          <mxGeometry x="240" y="640" width="560" height="50" as="geometry" />
        </mxCell>
        <mxCell id="Wlm1Ccf8dNlTr5grpKar-23" value="" style="line;strokeWidth=2;html=1;sketch=1;hachureGap=4;jiggle=2;curveFitting=1;fontFamily=Architects Daughter;fontSource=https://fonts.googleapis.com/css?family=Architects+Daughter;fontSize=20;" vertex="1" parent="1">
          <mxGeometry x="250" y="780" width="560" height="50" as="geometry" />
        </mxCell>
        <mxCell id="Wlm1Ccf8dNlTr5grpKar-24" value="" style="line;strokeWidth=2;html=1;sketch=1;hachureGap=4;jiggle=2;curveFitting=1;fontFamily=Architects Daughter;fontSource=https://fonts.googleapis.com/css?family=Architects+Daughter;fontSize=20;" vertex="1" parent="1">
          <mxGeometry x="240" y="920" width="560" height="50" as="geometry" />
        </mxCell>
        <mxCell id="Wlm1Ccf8dNlTr5grpKar-25" value="" style="line;strokeWidth=2;html=1;sketch=1;hachureGap=4;jiggle=2;curveFitting=1;fontFamily=Architects Daughter;fontSource=https://fonts.googleapis.com/css?family=Architects+Daughter;fontSize=20;" vertex="1" parent="1">
          <mxGeometry x="245" y="1060" width="560" height="50" as="geometry" />
        </mxCell>
        <mxCell id="Wlm1Ccf8dNlTr5grpKar-26" value="&lt;font style=&quot;font-size: 45px;&quot;&gt;入职员工信息&lt;/font&gt;" style="text;html=1;strokeColor=none;fillColor=none;align=center;verticalAlign=middle;whiteSpace=wrap;rounded=0;fontSize=20;fontFamily=Architects Daughter;" vertex="1" parent="1">
          <mxGeometry x="350" y="580" width="330" height="30" as="geometry" />
        </mxCell>
        <mxCell id="Wlm1Ccf8dNlTr5grpKar-30" value="&lt;font style=&quot;font-size: 45px;&quot;&gt;人事部门管理&lt;/font&gt;" style="text;html=1;strokeColor=none;fillColor=none;align=center;verticalAlign=middle;whiteSpace=wrap;rounded=0;fontSize=20;fontFamily=Architects Daughter;" vertex="1" parent="1">
          <mxGeometry x="350" y="710" width="330" height="80" as="geometry" />
        </mxCell>
        <mxCell id="Wlm1Ccf8dNlTr5grpKar-32" value="&lt;font style=&quot;font-size: 45px;&quot;&gt;寝室部门管理&lt;/font&gt;" style="text;html=1;strokeColor=none;fillColor=none;align=center;verticalAlign=middle;whiteSpace=wrap;rounded=0;fontSize=20;fontFamily=Architects Daughter;" vertex="1" parent="1">
          <mxGeometry x="355" y="840" width="330" height="80" as="geometry" />
        </mxCell>
        <mxCell id="Wlm1Ccf8dNlTr5grpKar-33" value="&lt;font style=&quot;font-size: 45px;&quot;&gt;财务管理部门&lt;/font&gt;" style="text;html=1;strokeColor=none;fillColor=none;align=center;verticalAlign=middle;whiteSpace=wrap;rounded=0;fontSize=20;fontFamily=Architects Daughter;" vertex="1" parent="1">
          <mxGeometry x="350" y="970" width="330" height="80" as="geometry" />
        </mxCell>
        <mxCell id="Wlm1Ccf8dNlTr5grpKar-35" value="" style="shape=table;startSize=0;container=1;collapsible=0;childLayout=tableLayout;fontSize=16;sketch=1;hachureGap=4;jiggle=2;curveFitting=1;fontFamily=Architects Daughter;fontSource=https%3A%2F%2Ffonts.googleapis.com%2Fcss%3Ffamily%3DArchitects%2BDaughter;" vertex="1" parent="1">
          <mxGeometry x="910" y="180" width="850" height="680" as="geometry" />
        </mxCell>
        <mxCell id="Wlm1Ccf8dNlTr5grpKar-40" value="" style="shape=tableRow;horizontal=0;startSize=0;swimlaneHead=0;swimlaneBody=0;strokeColor=inherit;top=0;left=0;bottom=0;right=0;collapsible=0;dropTarget=0;fillColor=none;points=[[0,0.5],[1,0.5]];portConstraint=eastwest;fontSize=16;sketch=1;hachureGap=4;jiggle=2;curveFitting=1;fontFamily=Architects Daughter;fontSource=https%3A%2F%2Ffonts.googleapis.com%2Fcss%3Ffamily%3DArchitects%2BDaughter;" vertex="1" parent="Wlm1Ccf8dNlTr5grpKar-35">
          <mxGeometry width="850" height="230" as="geometry" />
        </mxCell>
        <mxCell id="Wlm1Ccf8dNlTr5grpKar-41" value="&lt;font style=&quot;font-size: 45px;&quot;&gt;编号&lt;/font&gt;" style="shape=partialRectangle;html=1;whiteSpace=wrap;connectable=0;strokeColor=inherit;overflow=hidden;fillColor=none;top=0;left=0;bottom=0;right=0;pointerEvents=1;fontSize=16;sketch=1;hachureGap=4;jiggle=2;curveFitting=1;fontFamily=Architects Daughter;fontSource=https%3A%2F%2Ffonts.googleapis.com%2Fcss%3Ffamily%3DArchitects%2BDaughter;" vertex="1" parent="Wlm1Ccf8dNlTr5grpKar-40">
          <mxGeometry width="230" height="230" as="geometry">
            <mxRectangle width="230" height="230" as="alternateBounds" />
          </mxGeometry>
        </mxCell>
        <mxCell id="Wlm1Ccf8dNlTr5grpKar-42" value="&lt;font style=&quot;font-size: 45px;&quot;&gt;姓名&lt;/font&gt;" style="shape=partialRectangle;html=1;whiteSpace=wrap;connectable=0;strokeColor=inherit;overflow=hidden;fillColor=none;top=0;left=0;bottom=0;right=0;pointerEvents=1;fontSize=16;sketch=1;hachureGap=4;jiggle=2;curveFitting=1;fontFamily=Architects Daughter;fontSource=https%3A%2F%2Ffonts.googleapis.com%2Fcss%3Ffamily%3DArchitects%2BDaughter;" vertex="1" parent="Wlm1Ccf8dNlTr5grpKar-40">
          <mxGeometry x="230" width="270" height="230" as="geometry">
            <mxRectangle width="270" height="230" as="alternateBounds" />
          </mxGeometry>
        </mxCell>
        <mxCell id="Wlm1Ccf8dNlTr5grpKar-43" value="&lt;font style=&quot;font-size: 45px;&quot;&gt;年龄&lt;/font&gt;" style="shape=partialRectangle;html=1;whiteSpace=wrap;connectable=0;strokeColor=inherit;overflow=hidden;fillColor=none;top=0;left=0;bottom=0;right=0;pointerEvents=1;fontSize=16;sketch=1;hachureGap=4;jiggle=2;curveFitting=1;fontFamily=Architects Daughter;fontSource=https%3A%2F%2Ffonts.googleapis.com%2Fcss%3Ffamily%3DArchitects%2BDaughter;" vertex="1" parent="Wlm1Ccf8dNlTr5grpKar-40">
          <mxGeometry x="500" width="350" height="230" as="geometry">
            <mxRectangle width="350" height="230" as="alternateBounds" />
          </mxGeometry>
        </mxCell>
        <mxCell id="Wlm1Ccf8dNlTr5grpKar-36" value="" style="shape=tableRow;horizontal=0;startSize=0;swimlaneHead=0;swimlaneBody=0;strokeColor=inherit;top=0;left=0;bottom=0;right=0;collapsible=0;dropTarget=0;fillColor=none;points=[[0,0.5],[1,0.5]];portConstraint=eastwest;fontSize=16;sketch=1;hachureGap=4;jiggle=2;curveFitting=1;fontFamily=Architects Daughter;fontSource=https%3A%2F%2Ffonts.googleapis.com%2Fcss%3Ffamily%3DArchitects%2BDaughter;" vertex="1" parent="Wlm1Ccf8dNlTr5grpKar-35">
          <mxGeometry y="230" width="850" height="224" as="geometry" />
        </mxCell>
        <mxCell id="Wlm1Ccf8dNlTr5grpKar-37" value="" style="shape=partialRectangle;html=1;whiteSpace=wrap;connectable=0;strokeColor=inherit;overflow=hidden;fillColor=none;top=0;left=0;bottom=0;right=0;pointerEvents=1;fontSize=16;sketch=1;hachureGap=4;jiggle=2;curveFitting=1;fontFamily=Architects Daughter;fontSource=https%3A%2F%2Ffonts.googleapis.com%2Fcss%3Ffamily%3DArchitects%2BDaughter;" vertex="1" parent="Wlm1Ccf8dNlTr5grpKar-36">
          <mxGeometry width="230" height="224" as="geometry">
            <mxRectangle width="230" height="224" as="alternateBounds" />
          </mxGeometry>
        </mxCell>
        <mxCell id="Wlm1Ccf8dNlTr5grpKar-38" value="" style="shape=partialRectangle;html=1;whiteSpace=wrap;connectable=0;strokeColor=inherit;overflow=hidden;fillColor=none;top=0;left=0;bottom=0;right=0;pointerEvents=1;fontSize=16;sketch=1;hachureGap=4;jiggle=2;curveFitting=1;fontFamily=Architects Daughter;fontSource=https%3A%2F%2Ffonts.googleapis.com%2Fcss%3Ffamily%3DArchitects%2BDaughter;" vertex="1" parent="Wlm1Ccf8dNlTr5grpKar-36">
          <mxGeometry x="230" width="270" height="224" as="geometry">
            <mxRectangle width="270" height="224" as="alternateBounds" />
          </mxGeometry>
        </mxCell>
        <mxCell id="Wlm1Ccf8dNlTr5grpKar-39" value="" style="shape=partialRectangle;html=1;whiteSpace=wrap;connectable=0;strokeColor=inherit;overflow=hidden;fillColor=none;top=0;left=0;bottom=0;right=0;pointerEvents=1;fontSize=16;sketch=1;hachureGap=4;jiggle=2;curveFitting=1;fontFamily=Architects Daughter;fontSource=https%3A%2F%2Ffonts.googleapis.com%2Fcss%3Ffamily%3DArchitects%2BDaughter;" vertex="1" parent="Wlm1Ccf8dNlTr5grpKar-36">
          <mxGeometry x="500" width="350" height="224" as="geometry">
            <mxRectangle width="350" height="224" as="alternateBounds" />
          </mxGeometry>
        </mxCell>
        <mxCell id="Wlm1Ccf8dNlTr5grpKar-44" value="" style="shape=tableRow;horizontal=0;startSize=0;swimlaneHead=0;swimlaneBody=0;strokeColor=inherit;top=0;left=0;bottom=0;right=0;collapsible=0;dropTarget=0;fillColor=none;points=[[0,0.5],[1,0.5]];portConstraint=eastwest;fontSize=16;sketch=1;hachureGap=4;jiggle=2;curveFitting=1;fontFamily=Architects Daughter;fontSource=https%3A%2F%2Ffonts.googleapis.com%2Fcss%3Ffamily%3DArchitects%2BDaughter;" vertex="1" parent="Wlm1Ccf8dNlTr5grpKar-35">
          <mxGeometry y="454" width="850" height="226" as="geometry" />
        </mxCell>
        <mxCell id="Wlm1Ccf8dNlTr5grpKar-45" value="" style="shape=partialRectangle;html=1;whiteSpace=wrap;connectable=0;strokeColor=inherit;overflow=hidden;fillColor=none;top=0;left=0;bottom=0;right=0;pointerEvents=1;fontSize=16;sketch=1;hachureGap=4;jiggle=2;curveFitting=1;fontFamily=Architects Daughter;fontSource=https%3A%2F%2Ffonts.googleapis.com%2Fcss%3Ffamily%3DArchitects%2BDaughter;" vertex="1" parent="Wlm1Ccf8dNlTr5grpKar-44">
          <mxGeometry width="230" height="226" as="geometry">
            <mxRectangle width="230" height="226" as="alternateBounds" />
          </mxGeometry>
        </mxCell>
        <mxCell id="Wlm1Ccf8dNlTr5grpKar-46" value="" style="shape=partialRectangle;html=1;whiteSpace=wrap;connectable=0;overflow=hidden;top=0;left=0;bottom=0;right=0;pointerEvents=1;fontSize=16;sketch=1;hachureGap=4;jiggle=2;curveFitting=1;fontFamily=Architects Daughter;fontSource=https%3A%2F%2Ffonts.googleapis.com%2Fcss%3Ffamily%3DArchitects%2BDaughter;" vertex="1" parent="Wlm1Ccf8dNlTr5grpKar-44">
          <mxGeometry x="230" width="270" height="226" as="geometry">
            <mxRectangle width="270" height="226" as="alternateBounds" />
          </mxGeometry>
        </mxCell>
        <mxCell id="Wlm1Ccf8dNlTr5grpKar-47" value="" style="shape=partialRectangle;html=1;whiteSpace=wrap;connectable=0;strokeColor=inherit;overflow=hidden;fillColor=none;top=0;left=0;bottom=0;right=0;pointerEvents=1;fontSize=16;sketch=1;hachureGap=4;jiggle=2;curveFitting=1;fontFamily=Architects Daughter;fontSource=https%3A%2F%2Ffonts.googleapis.com%2Fcss%3Ffamily%3DArchitects%2BDaughter;" vertex="1" parent="Wlm1Ccf8dNlTr5grpKar-44">
          <mxGeometry x="500" width="350" height="226" as="geometry">
            <mxRectangle width="350" height="226" as="alternateBounds" />
          </mxGeometry>
        </mxCell>
        <mxCell id="Wlm1Ccf8dNlTr5grpKar-48" value="" style="shape=table;startSize=0;container=1;collapsible=0;childLayout=tableLayout;fontSize=16;sketch=1;hachureGap=4;jiggle=2;curveFitting=1;fontFamily=Architects Daughter;fontSource=https%3A%2F%2Ffonts.googleapis.com%2Fcss%3Ffamily%3DArchitects%2BDaughter;" vertex="1" parent="1">
          <mxGeometry x="1760" y="185" width="850" height="660" as="geometry" />
        </mxCell>
        <mxCell id="Wlm1Ccf8dNlTr5grpKar-49" value="" style="shape=tableRow;horizontal=0;startSize=0;swimlaneHead=0;swimlaneBody=0;strokeColor=inherit;top=0;left=0;bottom=0;right=0;collapsible=0;dropTarget=0;fillColor=none;points=[[0,0.5],[1,0.5]];portConstraint=eastwest;fontSize=16;sketch=1;hachureGap=4;jiggle=2;curveFitting=1;fontFamily=Architects Daughter;fontSource=https%3A%2F%2Ffonts.googleapis.com%2Fcss%3Ffamily%3DArchitects%2BDaughter;" vertex="1" parent="Wlm1Ccf8dNlTr5grpKar-48">
          <mxGeometry width="850" height="212" as="geometry" />
        </mxCell>
        <mxCell id="Wlm1Ccf8dNlTr5grpKar-50" value="&lt;span style=&quot;font-size: 45px;&quot;&gt;性别&lt;/span&gt;" style="shape=partialRectangle;html=1;whiteSpace=wrap;connectable=0;strokeColor=inherit;overflow=hidden;fillColor=none;top=0;left=0;bottom=0;right=0;pointerEvents=1;fontSize=16;sketch=1;hachureGap=4;jiggle=2;curveFitting=1;fontFamily=Architects Daughter;fontSource=https%3A%2F%2Ffonts.googleapis.com%2Fcss%3Ffamily%3DArchitects%2BDaughter;" vertex="1" parent="Wlm1Ccf8dNlTr5grpKar-49">
          <mxGeometry width="283" height="212" as="geometry">
            <mxRectangle width="283" height="212" as="alternateBounds" />
          </mxGeometry>
        </mxCell>
        <mxCell id="Wlm1Ccf8dNlTr5grpKar-51" value="&lt;font style=&quot;font-size: 45px;&quot;&gt;籍贯&lt;/font&gt;" style="shape=partialRectangle;html=1;whiteSpace=wrap;connectable=0;strokeColor=inherit;overflow=hidden;fillColor=none;top=0;left=0;bottom=0;right=0;pointerEvents=1;fontSize=16;sketch=1;hachureGap=4;jiggle=2;curveFitting=1;fontFamily=Architects Daughter;fontSource=https%3A%2F%2Ffonts.googleapis.com%2Fcss%3Ffamily%3DArchitects%2BDaughter;" vertex="1" parent="Wlm1Ccf8dNlTr5grpKar-49">
          <mxGeometry x="283" width="284" height="212" as="geometry">
            <mxRectangle width="284" height="212" as="alternateBounds" />
          </mxGeometry>
        </mxCell>
        <mxCell id="Wlm1Ccf8dNlTr5grpKar-52" value="&lt;font style=&quot;font-size: 45px;&quot;&gt;是否住宿&lt;/font&gt;" style="shape=partialRectangle;html=1;whiteSpace=wrap;connectable=0;strokeColor=inherit;overflow=hidden;fillColor=none;top=0;left=0;bottom=0;right=0;pointerEvents=1;fontSize=16;sketch=1;hachureGap=4;jiggle=2;curveFitting=1;fontFamily=Architects Daughter;fontSource=https%3A%2F%2Ffonts.googleapis.com%2Fcss%3Ffamily%3DArchitects%2BDaughter;" vertex="1" parent="Wlm1Ccf8dNlTr5grpKar-49">
          <mxGeometry x="567" width="283" height="212" as="geometry">
            <mxRectangle width="283" height="212" as="alternateBounds" />
          </mxGeometry>
        </mxCell>
        <mxCell id="Wlm1Ccf8dNlTr5grpKar-53" value="" style="shape=tableRow;horizontal=0;startSize=0;swimlaneHead=0;swimlaneBody=0;strokeColor=inherit;top=0;left=0;bottom=0;right=0;collapsible=0;dropTarget=0;fillColor=none;points=[[0,0.5],[1,0.5]];portConstraint=eastwest;fontSize=16;sketch=1;hachureGap=4;jiggle=2;curveFitting=1;fontFamily=Architects Daughter;fontSource=https%3A%2F%2Ffonts.googleapis.com%2Fcss%3Ffamily%3DArchitects%2BDaughter;" vertex="1" parent="Wlm1Ccf8dNlTr5grpKar-48">
          <mxGeometry y="212" width="850" height="235" as="geometry" />
        </mxCell>
        <mxCell id="Wlm1Ccf8dNlTr5grpKar-54" value="" style="shape=partialRectangle;html=1;whiteSpace=wrap;connectable=0;strokeColor=inherit;overflow=hidden;fillColor=none;top=0;left=0;bottom=0;right=0;pointerEvents=1;fontSize=16;sketch=1;hachureGap=4;jiggle=2;curveFitting=1;fontFamily=Architects Daughter;fontSource=https%3A%2F%2Ffonts.googleapis.com%2Fcss%3Ffamily%3DArchitects%2BDaughter;" vertex="1" parent="Wlm1Ccf8dNlTr5grpKar-53">
          <mxGeometry width="283" height="235" as="geometry">
            <mxRectangle width="283" height="235" as="alternateBounds" />
          </mxGeometry>
        </mxCell>
        <mxCell id="Wlm1Ccf8dNlTr5grpKar-55" value="" style="shape=partialRectangle;html=1;whiteSpace=wrap;connectable=0;strokeColor=inherit;overflow=hidden;fillColor=none;top=0;left=0;bottom=0;right=0;pointerEvents=1;fontSize=16;sketch=1;hachureGap=4;jiggle=2;curveFitting=1;fontFamily=Architects Daughter;fontSource=https%3A%2F%2Ffonts.googleapis.com%2Fcss%3Ffamily%3DArchitects%2BDaughter;" vertex="1" parent="Wlm1Ccf8dNlTr5grpKar-53">
          <mxGeometry x="283" width="284" height="235" as="geometry">
            <mxRectangle width="284" height="235" as="alternateBounds" />
          </mxGeometry>
        </mxCell>
        <mxCell id="Wlm1Ccf8dNlTr5grpKar-56" value="" style="shape=partialRectangle;html=1;whiteSpace=wrap;connectable=0;strokeColor=inherit;overflow=hidden;fillColor=none;top=0;left=0;bottom=0;right=0;pointerEvents=1;fontSize=16;sketch=1;hachureGap=4;jiggle=2;curveFitting=1;fontFamily=Architects Daughter;fontSource=https%3A%2F%2Ffonts.googleapis.com%2Fcss%3Ffamily%3DArchitects%2BDaughter;" vertex="1" parent="Wlm1Ccf8dNlTr5grpKar-53">
          <mxGeometry x="567" width="283" height="235" as="geometry">
            <mxRectangle width="283" height="235" as="alternateBounds" />
          </mxGeometry>
        </mxCell>
        <mxCell id="Wlm1Ccf8dNlTr5grpKar-57" value="" style="shape=tableRow;horizontal=0;startSize=0;swimlaneHead=0;swimlaneBody=0;strokeColor=inherit;top=0;left=0;bottom=0;right=0;collapsible=0;dropTarget=0;fillColor=none;points=[[0,0.5],[1,0.5]];portConstraint=eastwest;fontSize=16;sketch=1;hachureGap=4;jiggle=2;curveFitting=1;fontFamily=Architects Daughter;fontSource=https%3A%2F%2Ffonts.googleapis.com%2Fcss%3Ffamily%3DArchitects%2BDaughter;" vertex="1" parent="Wlm1Ccf8dNlTr5grpKar-48">
          <mxGeometry y="447" width="850" height="213" as="geometry" />
        </mxCell>
        <mxCell id="Wlm1Ccf8dNlTr5grpKar-58" value="" style="shape=partialRectangle;html=1;whiteSpace=wrap;connectable=0;strokeColor=inherit;overflow=hidden;fillColor=none;top=0;left=0;bottom=0;right=0;pointerEvents=1;fontSize=16;sketch=1;hachureGap=4;jiggle=2;curveFitting=1;fontFamily=Architects Daughter;fontSource=https%3A%2F%2Ffonts.googleapis.com%2Fcss%3Ffamily%3DArchitects%2BDaughter;" vertex="1" parent="Wlm1Ccf8dNlTr5grpKar-57">
          <mxGeometry width="283" height="213" as="geometry">
            <mxRectangle width="283" height="213" as="alternateBounds" />
          </mxGeometry>
        </mxCell>
        <mxCell id="Wlm1Ccf8dNlTr5grpKar-59" value="" style="shape=partialRectangle;html=1;whiteSpace=wrap;connectable=0;strokeColor=inherit;overflow=hidden;fillColor=none;top=0;left=0;bottom=0;right=0;pointerEvents=1;fontSize=16;sketch=1;hachureGap=4;jiggle=2;curveFitting=1;fontFamily=Architects Daughter;fontSource=https%3A%2F%2Ffonts.googleapis.com%2Fcss%3Ffamily%3DArchitects%2BDaughter;" vertex="1" parent="Wlm1Ccf8dNlTr5grpKar-57">
          <mxGeometry x="283" width="284" height="213" as="geometry">
            <mxRectangle width="284" height="213" as="alternateBounds" />
          </mxGeometry>
        </mxCell>
        <mxCell id="Wlm1Ccf8dNlTr5grpKar-60" value="" style="shape=partialRectangle;html=1;whiteSpace=wrap;connectable=0;strokeColor=inherit;overflow=hidden;fillColor=none;top=0;left=0;bottom=0;right=0;pointerEvents=1;fontSize=16;sketch=1;hachureGap=4;jiggle=2;curveFitting=1;fontFamily=Architects Daughter;fontSource=https%3A%2F%2Ffonts.googleapis.com%2Fcss%3Ffamily%3DArchitects%2BDaughter;" vertex="1" parent="Wlm1Ccf8dNlTr5grpKar-57">
          <mxGeometry x="567" width="283" height="213" as="geometry">
            <mxRectangle width="283" height="213" as="alternateBounds" />
          </mxGeometry>
        </mxCell>
        <mxCell id="Wlm1Ccf8dNlTr5grpKar-88" value="" style="shape=table;startSize=0;container=1;collapsible=0;childLayout=tableLayout;fontSize=16;sketch=1;hachureGap=4;jiggle=2;curveFitting=1;fontFamily=Architects Daughter;fontSource=https%3A%2F%2Ffonts.googleapis.com%2Fcss%3Ffamily%3DArchitects%2BDaughter;rounded=1;swimlaneLine=0;" vertex="1" parent="1">
          <mxGeometry x="910" y="820" width="850" height="660" as="geometry" />
        </mxCell>
        <mxCell id="Wlm1Ccf8dNlTr5grpKar-89" value="" style="shape=tableRow;horizontal=0;startSize=0;swimlaneHead=0;swimlaneBody=0;strokeColor=inherit;top=0;left=0;bottom=0;right=0;collapsible=0;dropTarget=0;fillColor=none;points=[[0,0.5],[1,0.5]];portConstraint=eastwest;fontSize=16;sketch=1;hachureGap=4;jiggle=2;curveFitting=1;fontFamily=Architects Daughter;fontSource=https%3A%2F%2Ffonts.googleapis.com%2Fcss%3Ffamily%3DArchitects%2BDaughter;" vertex="1" parent="Wlm1Ccf8dNlTr5grpKar-88">
          <mxGeometry width="850" height="206" as="geometry" />
        </mxCell>
        <mxCell id="Wlm1Ccf8dNlTr5grpKar-90" value="" style="shape=partialRectangle;html=1;whiteSpace=wrap;connectable=0;strokeColor=inherit;overflow=hidden;fillColor=none;top=0;left=0;bottom=0;right=0;pointerEvents=1;fontSize=16;sketch=1;hachureGap=4;jiggle=2;curveFitting=1;fontFamily=Architects Daughter;fontSource=https%3A%2F%2Ffonts.googleapis.com%2Fcss%3Ffamily%3DArchitects%2BDaughter;" vertex="1" parent="Wlm1Ccf8dNlTr5grpKar-89">
          <mxGeometry width="230" height="206" as="geometry">
            <mxRectangle width="230" height="206" as="alternateBounds" />
          </mxGeometry>
        </mxCell>
        <mxCell id="Wlm1Ccf8dNlTr5grpKar-91" value="" style="shape=partialRectangle;html=1;whiteSpace=wrap;connectable=0;strokeColor=inherit;overflow=hidden;fillColor=none;top=0;left=0;bottom=0;right=0;pointerEvents=1;fontSize=16;sketch=1;hachureGap=4;jiggle=2;curveFitting=1;fontFamily=Architects Daughter;fontSource=https%3A%2F%2Ffonts.googleapis.com%2Fcss%3Ffamily%3DArchitects%2BDaughter;" vertex="1" parent="Wlm1Ccf8dNlTr5grpKar-89">
          <mxGeometry x="230" width="270" height="206" as="geometry">
            <mxRectangle width="270" height="206" as="alternateBounds" />
          </mxGeometry>
        </mxCell>
        <mxCell id="Wlm1Ccf8dNlTr5grpKar-92" value="" style="shape=partialRectangle;html=1;whiteSpace=wrap;connectable=0;strokeColor=inherit;overflow=hidden;fillColor=none;top=0;left=0;bottom=0;right=0;pointerEvents=1;fontSize=16;sketch=1;hachureGap=4;jiggle=2;curveFitting=1;fontFamily=Architects Daughter;fontSource=https%3A%2F%2Ffonts.googleapis.com%2Fcss%3Ffamily%3DArchitects%2BDaughter;" vertex="1" parent="Wlm1Ccf8dNlTr5grpKar-89">
          <mxGeometry x="500" width="350" height="206" as="geometry">
            <mxRectangle width="350" height="206" as="alternateBounds" />
          </mxGeometry>
        </mxCell>
        <mxCell id="Wlm1Ccf8dNlTr5grpKar-93" value="" style="shape=tableRow;horizontal=0;startSize=0;swimlaneHead=0;swimlaneBody=0;strokeColor=inherit;top=0;left=0;bottom=0;right=0;collapsible=0;dropTarget=0;fillColor=none;points=[[0,0.5],[1,0.5]];portConstraint=eastwest;fontSize=16;sketch=1;hachureGap=4;jiggle=2;curveFitting=1;fontFamily=Architects Daughter;fontSource=https%3A%2F%2Ffonts.googleapis.com%2Fcss%3Ffamily%3DArchitects%2BDaughter;" vertex="1" parent="Wlm1Ccf8dNlTr5grpKar-88">
          <mxGeometry y="206" width="850" height="228" as="geometry" />
        </mxCell>
        <mxCell id="Wlm1Ccf8dNlTr5grpKar-94" value="" style="shape=partialRectangle;html=1;whiteSpace=wrap;connectable=0;strokeColor=inherit;overflow=hidden;fillColor=none;top=0;left=0;bottom=0;right=0;pointerEvents=1;fontSize=16;sketch=1;hachureGap=4;jiggle=2;curveFitting=1;fontFamily=Architects Daughter;fontSource=https%3A%2F%2Ffonts.googleapis.com%2Fcss%3Ffamily%3DArchitects%2BDaughter;" vertex="1" parent="Wlm1Ccf8dNlTr5grpKar-93">
          <mxGeometry width="230" height="228" as="geometry">
            <mxRectangle width="230" height="228" as="alternateBounds" />
          </mxGeometry>
        </mxCell>
        <mxCell id="Wlm1Ccf8dNlTr5grpKar-95" value="" style="shape=partialRectangle;html=1;whiteSpace=wrap;connectable=0;strokeColor=inherit;overflow=hidden;fillColor=none;top=0;left=0;bottom=0;right=0;pointerEvents=1;fontSize=16;sketch=1;hachureGap=4;jiggle=2;curveFitting=1;fontFamily=Architects Daughter;fontSource=https%3A%2F%2Ffonts.googleapis.com%2Fcss%3Ffamily%3DArchitects%2BDaughter;" vertex="1" parent="Wlm1Ccf8dNlTr5grpKar-93">
          <mxGeometry x="230" width="270" height="228" as="geometry">
            <mxRectangle width="270" height="228" as="alternateBounds" />
          </mxGeometry>
        </mxCell>
        <mxCell id="Wlm1Ccf8dNlTr5grpKar-96" value="" style="shape=partialRectangle;html=1;whiteSpace=wrap;connectable=0;strokeColor=inherit;overflow=hidden;fillColor=none;top=0;left=0;bottom=0;right=0;pointerEvents=1;fontSize=16;sketch=1;hachureGap=4;jiggle=2;curveFitting=1;fontFamily=Architects Daughter;fontSource=https%3A%2F%2Ffonts.googleapis.com%2Fcss%3Ffamily%3DArchitects%2BDaughter;" vertex="1" parent="Wlm1Ccf8dNlTr5grpKar-93">
          <mxGeometry x="500" width="350" height="228" as="geometry">
            <mxRectangle width="350" height="228" as="alternateBounds" />
          </mxGeometry>
        </mxCell>
        <mxCell id="Wlm1Ccf8dNlTr5grpKar-97" value="" style="shape=tableRow;horizontal=0;startSize=0;swimlaneHead=0;swimlaneBody=0;strokeColor=inherit;top=0;left=0;bottom=0;right=0;collapsible=0;dropTarget=0;fillColor=none;points=[[0,0.5],[1,0.5]];portConstraint=eastwest;fontSize=16;sketch=1;hachureGap=4;jiggle=2;curveFitting=1;fontFamily=Architects Daughter;fontSource=https%3A%2F%2Ffonts.googleapis.com%2Fcss%3Ffamily%3DArchitects%2BDaughter;" vertex="1" parent="Wlm1Ccf8dNlTr5grpKar-88">
          <mxGeometry y="434" width="850" height="226" as="geometry" />
        </mxCell>
        <mxCell id="Wlm1Ccf8dNlTr5grpKar-98" value="" style="shape=partialRectangle;html=1;whiteSpace=wrap;connectable=0;strokeColor=inherit;overflow=hidden;fillColor=none;top=0;left=0;bottom=0;right=0;pointerEvents=1;fontSize=16;sketch=1;hachureGap=4;jiggle=2;curveFitting=1;fontFamily=Architects Daughter;fontSource=https%3A%2F%2Ffonts.googleapis.com%2Fcss%3Ffamily%3DArchitects%2BDaughter;" vertex="1" parent="Wlm1Ccf8dNlTr5grpKar-97">
          <mxGeometry width="230" height="226" as="geometry">
            <mxRectangle width="230" height="226" as="alternateBounds" />
          </mxGeometry>
        </mxCell>
        <mxCell id="Wlm1Ccf8dNlTr5grpKar-99" value="" style="shape=partialRectangle;html=1;whiteSpace=wrap;connectable=0;strokeColor=inherit;overflow=hidden;fillColor=none;top=0;left=0;bottom=0;right=0;pointerEvents=1;fontSize=16;sketch=1;hachureGap=4;jiggle=2;curveFitting=1;fontFamily=Architects Daughter;fontSource=https%3A%2F%2Ffonts.googleapis.com%2Fcss%3Ffamily%3DArchitects%2BDaughter;" vertex="1" parent="Wlm1Ccf8dNlTr5grpKar-97">
          <mxGeometry x="230" width="270" height="226" as="geometry">
            <mxRectangle width="270" height="226" as="alternateBounds" />
          </mxGeometry>
        </mxCell>
        <mxCell id="Wlm1Ccf8dNlTr5grpKar-100" value="" style="shape=partialRectangle;html=1;whiteSpace=wrap;connectable=0;strokeColor=inherit;overflow=hidden;fillColor=none;top=0;left=0;bottom=0;right=0;pointerEvents=1;fontSize=16;sketch=1;hachureGap=4;jiggle=2;curveFitting=1;fontFamily=Architects Daughter;fontSource=https%3A%2F%2Ffonts.googleapis.com%2Fcss%3Ffamily%3DArchitects%2BDaughter;" vertex="1" parent="Wlm1Ccf8dNlTr5grpKar-97">
          <mxGeometry x="500" width="350" height="226" as="geometry">
            <mxRectangle width="350" height="226" as="alternateBounds" />
          </mxGeometry>
        </mxCell>
        <mxCell id="Wlm1Ccf8dNlTr5grpKar-101" value="" style="shape=table;startSize=0;container=1;collapsible=0;childLayout=tableLayout;fontSize=16;sketch=1;hachureGap=4;jiggle=2;curveFitting=1;fontFamily=Architects Daughter;fontSource=https%3A%2F%2Ffonts.googleapis.com%2Fcss%3Ffamily%3DArchitects%2BDaughter;" vertex="1" parent="1">
          <mxGeometry x="1760" y="820" width="850" height="660" as="geometry" />
        </mxCell>
        <mxCell id="Wlm1Ccf8dNlTr5grpKar-102" value="" style="shape=tableRow;horizontal=0;startSize=0;swimlaneHead=0;swimlaneBody=0;strokeColor=inherit;top=0;left=0;bottom=0;right=0;collapsible=0;dropTarget=0;fillColor=none;points=[[0,0.5],[1,0.5]];portConstraint=eastwest;fontSize=16;sketch=1;hachureGap=4;jiggle=2;curveFitting=1;fontFamily=Architects Daughter;fontSource=https%3A%2F%2Ffonts.googleapis.com%2Fcss%3Ffamily%3DArchitects%2BDaughter;" vertex="1" parent="Wlm1Ccf8dNlTr5grpKar-101">
          <mxGeometry width="850" height="206" as="geometry" />
        </mxCell>
        <mxCell id="Wlm1Ccf8dNlTr5grpKar-103" value="" style="shape=partialRectangle;html=1;whiteSpace=wrap;connectable=0;strokeColor=inherit;overflow=hidden;fillColor=none;top=0;left=0;bottom=0;right=0;pointerEvents=1;fontSize=16;sketch=1;hachureGap=4;jiggle=2;curveFitting=1;fontFamily=Architects Daughter;fontSource=https%3A%2F%2Ffonts.googleapis.com%2Fcss%3Ffamily%3DArchitects%2BDaughter;" vertex="1" parent="Wlm1Ccf8dNlTr5grpKar-102">
          <mxGeometry width="283" height="206" as="geometry">
            <mxRectangle width="283" height="206" as="alternateBounds" />
          </mxGeometry>
        </mxCell>
        <mxCell id="Wlm1Ccf8dNlTr5grpKar-104" value="" style="shape=partialRectangle;html=1;whiteSpace=wrap;connectable=0;strokeColor=inherit;overflow=hidden;fillColor=none;top=0;left=0;bottom=0;right=0;pointerEvents=1;fontSize=16;sketch=1;hachureGap=4;jiggle=2;curveFitting=1;fontFamily=Architects Daughter;fontSource=https%3A%2F%2Ffonts.googleapis.com%2Fcss%3Ffamily%3DArchitects%2BDaughter;" vertex="1" parent="Wlm1Ccf8dNlTr5grpKar-102">
          <mxGeometry x="283" width="284" height="206" as="geometry">
            <mxRectangle width="284" height="206" as="alternateBounds" />
          </mxGeometry>
        </mxCell>
        <mxCell id="Wlm1Ccf8dNlTr5grpKar-105" value="" style="shape=partialRectangle;html=1;whiteSpace=wrap;connectable=0;strokeColor=inherit;overflow=hidden;fillColor=none;top=0;left=0;bottom=0;right=0;pointerEvents=1;fontSize=16;sketch=1;hachureGap=4;jiggle=2;curveFitting=1;fontFamily=Architects Daughter;fontSource=https%3A%2F%2Ffonts.googleapis.com%2Fcss%3Ffamily%3DArchitects%2BDaughter;" vertex="1" parent="Wlm1Ccf8dNlTr5grpKar-102">
          <mxGeometry x="567" width="283" height="206" as="geometry">
            <mxRectangle width="283" height="206" as="alternateBounds" />
          </mxGeometry>
        </mxCell>
        <mxCell id="Wlm1Ccf8dNlTr5grpKar-106" value="" style="shape=tableRow;horizontal=0;startSize=0;swimlaneHead=0;swimlaneBody=0;strokeColor=inherit;top=0;left=0;bottom=0;right=0;collapsible=0;dropTarget=0;fillColor=none;points=[[0,0.5],[1,0.5]];portConstraint=eastwest;fontSize=16;sketch=1;hachureGap=4;jiggle=2;curveFitting=1;fontFamily=Architects Daughter;fontSource=https%3A%2F%2Ffonts.googleapis.com%2Fcss%3Ffamily%3DArchitects%2BDaughter;" vertex="1" parent="Wlm1Ccf8dNlTr5grpKar-101">
          <mxGeometry y="206" width="850" height="228" as="geometry" />
        </mxCell>
        <mxCell id="Wlm1Ccf8dNlTr5grpKar-107" value="" style="shape=partialRectangle;html=1;whiteSpace=wrap;connectable=0;strokeColor=inherit;overflow=hidden;fillColor=none;top=0;left=0;bottom=0;right=0;pointerEvents=1;fontSize=16;sketch=1;hachureGap=4;jiggle=2;curveFitting=1;fontFamily=Architects Daughter;fontSource=https%3A%2F%2Ffonts.googleapis.com%2Fcss%3Ffamily%3DArchitects%2BDaughter;" vertex="1" parent="Wlm1Ccf8dNlTr5grpKar-106">
          <mxGeometry width="283" height="228" as="geometry">
            <mxRectangle width="283" height="228" as="alternateBounds" />
          </mxGeometry>
        </mxCell>
        <mxCell id="Wlm1Ccf8dNlTr5grpKar-108" value="" style="shape=partialRectangle;html=1;whiteSpace=wrap;connectable=0;strokeColor=inherit;overflow=hidden;fillColor=none;top=0;left=0;bottom=0;right=0;pointerEvents=1;fontSize=16;sketch=1;hachureGap=4;jiggle=2;curveFitting=1;fontFamily=Architects Daughter;fontSource=https%3A%2F%2Ffonts.googleapis.com%2Fcss%3Ffamily%3DArchitects%2BDaughter;" vertex="1" parent="Wlm1Ccf8dNlTr5grpKar-106">
          <mxGeometry x="283" width="284" height="228" as="geometry">
            <mxRectangle width="284" height="228" as="alternateBounds" />
          </mxGeometry>
        </mxCell>
        <mxCell id="Wlm1Ccf8dNlTr5grpKar-109" value="" style="shape=partialRectangle;html=1;whiteSpace=wrap;connectable=0;strokeColor=inherit;overflow=hidden;fillColor=none;top=0;left=0;bottom=0;right=0;pointerEvents=1;fontSize=16;sketch=1;hachureGap=4;jiggle=2;curveFitting=1;fontFamily=Architects Daughter;fontSource=https%3A%2F%2Ffonts.googleapis.com%2Fcss%3Ffamily%3DArchitects%2BDaughter;" vertex="1" parent="Wlm1Ccf8dNlTr5grpKar-106">
          <mxGeometry x="567" width="283" height="228" as="geometry">
            <mxRectangle width="283" height="228" as="alternateBounds" />
          </mxGeometry>
        </mxCell>
        <mxCell id="Wlm1Ccf8dNlTr5grpKar-110" value="" style="shape=tableRow;horizontal=0;startSize=0;swimlaneHead=0;swimlaneBody=0;strokeColor=inherit;top=0;left=0;bottom=0;right=0;collapsible=0;dropTarget=0;fillColor=none;points=[[0,0.5],[1,0.5]];portConstraint=eastwest;fontSize=16;sketch=1;hachureGap=4;jiggle=2;curveFitting=1;fontFamily=Architects Daughter;fontSource=https%3A%2F%2Ffonts.googleapis.com%2Fcss%3Ffamily%3DArchitects%2BDaughter;" vertex="1" parent="Wlm1Ccf8dNlTr5grpKar-101">
          <mxGeometry y="434" width="850" height="226" as="geometry" />
        </mxCell>
        <mxCell id="Wlm1Ccf8dNlTr5grpKar-111" value="" style="shape=partialRectangle;html=1;whiteSpace=wrap;connectable=0;strokeColor=inherit;overflow=hidden;fillColor=none;top=0;left=0;bottom=0;right=0;pointerEvents=1;fontSize=16;sketch=1;hachureGap=4;jiggle=2;curveFitting=1;fontFamily=Architects Daughter;fontSource=https%3A%2F%2Ffonts.googleapis.com%2Fcss%3Ffamily%3DArchitects%2BDaughter;" vertex="1" parent="Wlm1Ccf8dNlTr5grpKar-110">
          <mxGeometry width="283" height="226" as="geometry">
            <mxRectangle width="283" height="226" as="alternateBounds" />
          </mxGeometry>
        </mxCell>
        <mxCell id="Wlm1Ccf8dNlTr5grpKar-112" value="" style="shape=partialRectangle;html=1;whiteSpace=wrap;connectable=0;strokeColor=inherit;overflow=hidden;fillColor=none;top=0;left=0;bottom=0;right=0;pointerEvents=1;fontSize=16;sketch=1;hachureGap=4;jiggle=2;curveFitting=1;fontFamily=Architects Daughter;fontSource=https%3A%2F%2Ffonts.googleapis.com%2Fcss%3Ffamily%3DArchitects%2BDaughter;" vertex="1" parent="Wlm1Ccf8dNlTr5grpKar-110">
          <mxGeometry x="283" width="284" height="226" as="geometry">
            <mxRectangle width="284" height="226" as="alternateBounds" />
          </mxGeometry>
        </mxCell>
        <mxCell id="Wlm1Ccf8dNlTr5grpKar-113" value="" style="shape=partialRectangle;html=1;whiteSpace=wrap;connectable=0;strokeColor=inherit;overflow=hidden;fillColor=none;top=0;left=0;bottom=0;right=0;pointerEvents=1;fontSize=16;sketch=1;hachureGap=4;jiggle=2;curveFitting=1;fontFamily=Architects Daughter;fontSource=https%3A%2F%2Ffonts.googleapis.com%2Fcss%3Ffamily%3DArchitects%2BDaughter;" vertex="1" parent="Wlm1Ccf8dNlTr5grpKar-110">
          <mxGeometry x="567" width="283" height="226" as="geometry">
            <mxRectangle width="283" height="226" as="alternateBounds" />
          </mxGeometry>
        </mxCell>
        <mxCell id="Wlm1Ccf8dNlTr5grpKar-140" value="" style="image;html=1;image=img/lib/clip_art/computers/Data_Filtering_128x128.png" vertex="1" parent="1">
          <mxGeometry x="1300" y="-50" width="240" height="140" as="geometry" />
        </mxCell>
        <mxCell id="Wlm1Ccf8dNlTr5grpKar-141" value="&lt;font style=&quot;font-size: 45px;&quot;&gt;姓名&lt;/font&gt;" style="rounded=1;whiteSpace=wrap;html=1;align=left;sketch=1;curveFitting=1;jiggle=2;glass=0;" vertex="1" parent="1">
          <mxGeometry x="1510" y="-15" width="360" height="70" as="geometry" />
        </mxCell>
        <mxCell id="Wlm1Ccf8dNlTr5grpKar-148" value="&lt;font color=&quot;#ffffff&quot; style=&quot;font-size: 45px;&quot;&gt;查询&lt;/font&gt;" style="rounded=1;whiteSpace=wrap;html=1;sketch=1;hachureGap=4;jiggle=2;curveFitting=1;fontFamily=Architects Daughter;fontSource=https%3A%2F%2Ffonts.googleapis.com%2Fcss%3Ffamily%3DArchitects%2BDaughter;fontSize=20;fillColor=#007FFF;gradientColor=default;" vertex="1" parent="1">
          <mxGeometry x="1960" y="-10" width="150" height="60" as="geometry" />
        </mxCell>
        <mxCell id="Wlm1Ccf8dNlTr5grpKar-149" value="&lt;span style=&quot;font-size: 45px;&quot;&gt;分页&lt;/span&gt;" style="text;html=1;strokeColor=none;fillColor=none;align=center;verticalAlign=middle;whiteSpace=wrap;rounded=0;fontSize=20;fontFamily=Architects Daughter;" vertex="1" parent="1">
          <mxGeometry x="1560" y="1570" width="420" height="110" as="geometry" />
        </mxCell>
        <mxCell id="Wlm1Ccf8dNlTr5grpKar-150" value="" style="triangle;whiteSpace=wrap;html=1;sketch=1;hachureGap=4;jiggle=2;curveFitting=1;fontFamily=Architects Daughter;fontSource=https%3A%2F%2Ffonts.googleapis.com%2Fcss%3Ffamily%3DArchitects%2BDaughter;fontSize=20;rotation=90;" vertex="1" parent="1">
          <mxGeometry x="700" y="845" width="50" height="70" as="geometry" />
        </mxCell>
        <mxCell id="Wlm1Ccf8dNlTr5grpKar-152" value="" style="triangle;whiteSpace=wrap;html=1;sketch=1;hachureGap=4;jiggle=2;curveFitting=1;fontFamily=Architects Daughter;fontSource=https%3A%2F%2Ffonts.googleapis.com%2Fcss%3Ffamily%3DArchitects%2BDaughter;fontSize=20;rotation=90;" vertex="1" parent="1">
          <mxGeometry x="700" y="715" width="50" height="70" as="geometry" />
        </mxCell>
        <mxCell id="Wlm1Ccf8dNlTr5grpKar-159" value="&lt;br&gt;&lt;p style=&quot;box-sizing: border-box; margin: 0px; padding: 0px; color: rgb(255, 255, 255); font-family: -apple-system, BlinkMacSystemFont, &amp;quot;Segoe UI&amp;quot;, &amp;quot;PingFang SC&amp;quot;, &amp;quot;Hiragino Sans GB&amp;quot;, &amp;quot;Microsoft YaHei&amp;quot;, &amp;quot;Helvetica Neue&amp;quot;, Helvetica, Arial, sans-serif, &amp;quot;Apple Color Emoji&amp;quot;, &amp;quot;Segoe UI Emoji&amp;quot;, &amp;quot;Segoe UI Symbol&amp;quot;; font-size: 45px; font-style: normal; font-variant-ligatures: normal; font-variant-caps: normal; font-weight: 400; letter-spacing: normal; orphans: 2; text-align: center; text-indent: 0px; text-transform: none; widows: 2; word-spacing: 0px; -webkit-text-stroke-width: 0px; background-color: rgb(24, 51, 111); text-decoration-thickness: initial; text-decoration-style: initial; text-decoration-color: initial;&quot;&gt;Copyright @2023 武汉柯基大学&lt;/p&gt;&lt;span style=&quot;color: rgb(255, 255, 255); font-family: -apple-system, BlinkMacSystemFont, &amp;quot;Segoe UI&amp;quot;, &amp;quot;PingFang SC&amp;quot;, &amp;quot;Hiragino Sans GB&amp;quot;, &amp;quot;Microsoft YaHei&amp;quot;, &amp;quot;Helvetica Neue&amp;quot;, Helvetica, Arial, sans-serif, &amp;quot;Apple Color Emoji&amp;quot;, &amp;quot;Segoe UI Emoji&amp;quot;, &amp;quot;Segoe UI Symbol&amp;quot;; font-size: 45px; font-style: normal; font-variant-ligatures: normal; font-variant-caps: normal; font-weight: 400; letter-spacing: normal; orphans: 2; text-align: center; text-indent: 0px; text-transform: none; widows: 2; word-spacing: 0px; -webkit-text-stroke-width: 0px; background-color: rgb(24, 51, 111); text-decoration-thickness: initial; text-decoration-style: initial; text-decoration-color: initial; float: none; display: inline !important;&quot;&gt;网络信息中心 服务电话：66666666666&lt;/span&gt;&lt;p style=&quot;box-sizing: border-box; margin: 0px; padding: 0px; color: rgb(255, 255, 255); font-family: -apple-system, BlinkMacSystemFont, &amp;quot;Segoe UI&amp;quot;, &amp;quot;PingFang SC&amp;quot;, &amp;quot;Hiragino Sans GB&amp;quot;, &amp;quot;Microsoft YaHei&amp;quot;, &amp;quot;Helvetica Neue&amp;quot;, Helvetica, Arial, sans-serif, &amp;quot;Apple Color Emoji&amp;quot;, &amp;quot;Segoe UI Emoji&amp;quot;, &amp;quot;Segoe UI Symbol&amp;quot;; font-size: 45px; font-style: normal; font-variant-ligatures: normal; font-variant-caps: normal; font-weight: 400; letter-spacing: normal; orphans: 2; text-align: center; text-indent: 0px; text-transform: none; widows: 2; word-spacing: 0px; -webkit-text-stroke-width: 0px; background-color: rgb(24, 51, 111); text-decoration-thickness: initial; text-decoration-style: initial; text-decoration-color: initial;&quot;&gt;服务邮箱：support@wust.edu.cn&lt;/p&gt;" style="rounded=0;whiteSpace=wrap;html=1;sketch=1;hachureGap=4;jiggle=2;curveFitting=1;fontFamily=Architects Daughter;fontSource=https%3A%2F%2Ffonts.googleapis.com%2Fcss%3Ffamily%3DArchitects%2BDaughter;fontSize=45;fillColor=#60a917;fontColor=#ffffff;strokeColor=#2D7600;" vertex="1" parent="1">
          <mxGeometry x="245" y="1870" width="2460" height="410" as="geometry" />
        </mxCell>
      </root>
    </mxGraphModel>
  </diagram>
</mxfile>
